<?xml version="1.0" encoding="utf-8"?>
<!-- Generator: Adobe Illustrator 25.2.1, SVG Export Plug-In . SVG Version: 6.00 Build 0)  -->
<svg version="1.1" id="Capa_1" xmlns="http://www.w3.org/2000/svg" xmlns:xlink="http://www.w3.org/1999/xlink" x="0px" y="0px"
	 viewBox="0 0 30.3 30.3" style="enable-background:new 0 0 30.3 30.3;" xml:space="preserve">
<style type="text/css">
	.st0{fill:#28A745;}
	.st1{fill:#FFFFFF;}
</style>
<rect class="st0" width="30.3" height="30.3"/>
<g>
	<polygon class="st1" points="27.1,5 23.4,5 23.4,7.6 26.7,7.6 25.2,6.3 	"/>
	<path class="st1" d="M16.5,16.3V16c0-0.3-0.1-0.5-0.4-0.5h-0.4v1.3H16C16.3,16.8,16.5,16.7,16.5,16.3z"/>
	<polygon class="st1" points="13.6,17.6 14.4,17.6 14,15.6 	"/>
	<path class="st1" d="M13.7,13.7c0.4,0,0.6-0.3,0.6-0.7v-2.6c0-0.4-0.2-0.7-0.6-0.7c-0.4,0-0.6,0.3-0.6,0.7V13
		C13.1,13.4,13.3,13.7,13.7,13.7z"/>
	<path class="st1" d="M16.5,13.7c0.4,0,0.6-0.3,0.6-0.7v-2.6c0-0.4-0.2-0.7-0.6-0.7c-0.4,0-0.6,0.3-0.6,0.7V13
		C15.9,13.4,16.1,13.7,16.5,13.7z"/>
	<path class="st1" d="M22.9,26.6H8.2c-0.1,0-0.3,0-0.6-0.2h14.5v-0.1H7.5c-0.1-0.1-0.2-0.3-0.2-0.5h14.9v-0.1H7.3c0-0.1,0-0.1,0-0.2
		c0-0.1,0-0.2,0-0.3h14.9v-0.1H7.3c0.1-0.2,0.1-0.4,0.3-0.5h14.6v-0.1H7.7c0.2-0.2,0.5-0.3,0.6-0.3h14.7v-0.6h0.2V2.6H7.6l0,0
		c0,0,0,0,0,0h0v0c-0.3,0.1-2,1-2,3.1l0.2,19.9l0.1,0c0,1.8,1.4,2.3,2.2,2.3h15.5v-0.7h-0.5V26.6z M19.5,17.1v1.6h-0.4v-3.5h0.4v1.6
		h0.9v-1.6h0.4v3.5h-0.4v-1.6H19.5z M18.3,9.2h0.5v2.4l1.3-2.4h0.6l-1.2,2.2l1.3,2.7h-0.6L19.1,12l-0.3,0.5v1.6h-0.5V9.2z M18.8,16
		v0.3h-0.4V16c0-0.3-0.1-0.5-0.4-0.5c-0.3,0-0.4,0.2-0.4,0.5v1.9c0,0.3,0.1,0.5,0.4,0.5c0.3,0,0.4-0.2,0.4-0.5v-0.5h0.4v0.4
		c0,0.5-0.2,0.9-0.8,0.9c-0.5,0-0.8-0.4-0.8-0.9V16c0-0.5,0.2-0.9,0.8-0.9C18.6,15.1,18.8,15.5,18.8,16z M15.4,10.4
		c0-0.7,0.4-1.2,1.1-1.2c0.8,0,1.1,0.5,1.1,1.2V13c0,0.7-0.4,1.2-1.1,1.2c-0.7,0-1.1-0.5-1.1-1.2V10.4z M15.3,15.1h0.8
		c0.6,0,0.8,0.3,0.8,0.8v0.3c0,0.4-0.1,0.6-0.4,0.7c0.3,0.1,0.4,0.4,0.4,0.7v0.5c0,0.2,0,0.3,0.1,0.4h-0.4c0-0.1-0.1-0.2-0.1-0.4
		v-0.5c0-0.4-0.2-0.5-0.5-0.5h-0.3v1.5h-0.4V15.1z M12.5,10.4c0-0.7,0.4-1.2,1.1-1.2c0.8,0,1.1,0.5,1.1,1.2V13
		c0,0.7-0.4,1.2-1.1,1.2c-0.7,0-1.1-0.5-1.1-1.2V10.4z M15,18.6h-0.4l-0.1-0.7h-0.9l-0.1,0.7h-0.4l0.7-3.5h0.6L15,18.6z M12.6,16.7
		V17h-0.9v1.2h1.1v0.4h-1.4v-3.5h1.4v0.4h-1.1v1.2H12.6z M9.7,9.2h1.1c0.8,0,1.1,0.4,1.1,1.1v0.2c0,0.5-0.1,0.8-0.6,1
		c0.5,0.1,0.7,0.5,0.7,1.1V13c0,0.7-0.4,1.1-1.1,1.1H9.7V9.2z M9.5,17.6h0.4v0.2c0,0.3,0.1,0.5,0.4,0.5s0.4-0.2,0.4-0.5
		c0-0.8-1.2-0.9-1.2-1.8c0-0.5,0.2-0.9,0.8-0.9c0.5,0,0.8,0.3,0.8,0.9v0.1h-0.4V16c0-0.3-0.1-0.5-0.4-0.5S9.9,15.6,9.9,16
		c0,0.8,1.2,0.9,1.2,1.8c0,0.5-0.3,0.9-0.8,0.9c-0.5,0-0.8-0.3-0.8-0.9V17.6z M7.5,5.8V23c-0.3,0.1-0.7,0.4-1,0.7l0-3L7.5,5.8z
		 M22.5,27.2H7.9c-0.2,0-1.5-0.1-1.5-1.6c0,0,0,0,0,0l0.1,0l0-0.6c0.2-0.9,0.9-1.3,1.3-1.5h14.7v0.2H8.2l-0.1,0
		c-0.5,0.1-1.3,0.7-1.3,1.8c0,1.1,0.9,1.5,1.4,1.5h14.3V27.2z"/>
	<path class="st1" d="M11.4,13v-0.4c0-0.5-0.2-0.7-0.7-0.7h-0.5v1.8h0.6C11.2,13.6,11.4,13.4,11.4,13z"/>
	<path class="st1" d="M11.3,10.7v-0.3c0-0.4-0.1-0.6-0.5-0.6h-0.5v1.6h0.4C11.1,11.3,11.3,11.2,11.3,10.7z"/>
</g>
</svg>
